<?xml version="1.0" standalone="no"?>
<!DOCTYPE svg PUBLIC "-//W3C//DTD SVG 20010904//EN"
 "http://www.w3.org/TR/2001/REC-SVG-20010904/DTD/svg10.dtd">
<svg version="1.0" xmlns="http://www.w3.org/2000/svg"
 width="800.000000pt" height="799.000000pt" viewBox="0 0 800.000000 799.000000"
 preserveAspectRatio="xMidYMid meet">

<g transform="translate(0.000000,799.000000) scale(0.100000,-0.100000)"
fill="#000000" stroke="none">
<path d="M0 3995 l0 -3995 4000 0 4000 0 0 3995 0 3995 -4000 0 -4000 0 0
-3995z m2485 3230 c215 -59 379 -216 429 -410 24 -95 29 -184 17 -281 -66
-496 -559 -984 -1111 -1100 -121 -25 -319 -23 -423 5 -238 63 -401 236 -443
471 -37 205 30 458 183 689 70 105 254 292 378 384 159 118 381 215 575 252
97 18 312 13 395 -10z m2627 -1899 c512 -101 829 -620 677 -1112 -158 -511
-729 -765 -1208 -539 -478 227 -649 828 -361 1268 194 295 553 449 892 383z
m-1417 -1508 c108 -213 263 -388 458 -519 202 -135 398 -205 649 -230 450 -47
933 168 1207 536 83 110 74 104 117 95 455 -90 1036 -267 1587 -482 91 -36 90
-28 48 -190 -67 -257 -164 -512 -290 -761 -83 -165 -118 -224 -274 -457 -204
-305 -539 -653 -877 -911 -303 -231 -706 -442 -1088 -569 -131 -44 -395 -113
-493 -130 -349 -59 -527 -73 -814 -66 -302 7 -500 30 -755 87 -328 73 -587
163 -885 309 -932 455 -1651 1277 -1980 2265 -50 151 -106 368 -97 376 28 26
687 252 1012 346 591 173 981 254 1600 333 216 27 585 57 732 59 l96 1 47 -92z"/>
<path d="M4875 5134 c-11 -2 -45 -9 -75 -15 -30 -6 -97 -31 -148 -55 -269
-130 -417 -434 -356 -732 52 -252 244 -453 494 -517 82 -21 244 -21 325 0 235
61 426 250 485 481 24 94 27 244 5 329 -51 202 -209 385 -399 462 -97 40 -253
62 -331 47z m266 -80 c117 -37 234 -119 304 -213 83 -114 125 -239 125 -376 0
-184 -91 -374 -232 -483 -116 -89 -241 -132 -388 -132 -169 0 -309 58 -430
179 -129 128 -184 262 -184 441 0 90 5 117 30 190 17 47 47 111 68 142 74 112
210 216 336 257 109 35 248 33 371 -5z"/>
</g>
</svg>
